# xmcd
#
# Track frame offsets:
#       150
#       16236
#       30360
#       47991
#       63120
#       80932
#       98777
#       116706
#       136159
#       153494
#       171678
#       189709
#       209355
#       225762
#       247602
#       261242
#       277012
#       293194
#
# Disc length: 4117 seconds
#
# Revision: 1
# Processed by: cddbd v1.5.2PL0 Copyright (c) Steve Scherf et al.
# Submitted via: MusiCat 1.1
#
DISCID=fc101312
DTITLE=Pop Hits - Sampler - Power hits 2002 Die Vierte
DYEAR=1900
DGENRE=
TTITLE0=Madonna - Die another Day
TTITLE1=Mandy and Rand - Mandy
TTITLE2=Sugarbabes - Round, Round
TTITLE3=Shaggy - Hey Sexy Lady
TTITLE4=Sash feat Boy Georg - Run
TTITLE5=Ronan Keating - I love it when we do
TTITLE6=Pink - Just like a Pill
TTITLE7=Phil Collins - Can't stop loving you
TTITLE8=Bomfunk MC's - Somthing going on
TTITLE9=Who Da Funk - Shiny Disco Balls
TTITLE10=Christina Aguilera - Dirty
TTITLE11=Soda Club - Take my Breath away
TTITLE12=Craig David - What's your Flavor
TTITLE13=Nelly - Dilemna
TTITLE14=The Flames - Everytime
TTITLE15=Le Ann Rimes - Life goes on
TTITLE16=Bust - What I go to Scholl for
TTITLE17=Blue - One Love
EXTD=\n\n
EXTT0=
EXTT1=
EXTT2=
EXTT3=
EXTT4=
EXTT5=
EXTT6=
EXTT7=
EXTT8=
EXTT9=
EXTT10=
EXTT11=
EXTT12=
EXTT13=
EXTT14=
EXTT15=
EXTT16=
EXTT17=
PLAYORDER=
